<svg width="299" height="56" viewBox="0 0 299 56" fill="none" xmlns="http://www.w3.org/2000/svg">
<mask id="mask0_2003_21" style="mask-type:luminance" maskUnits="userSpaceOnUse" x="0" y="0" width="300" height="56">
<path d="M299.007 0H0V55.1724H299.007V0Z" fill="white"/>
</mask>
<g mask="url(#mask0_2003_21)">
<path d="M296.069 38.0876V13.618H299.007V38.0876H296.069Z" fill="white"/>
<path d="M272.912 38.0876L281.934 13.618H285.045L294.022 38.0876H290.879L283.472 17.289L275.991 38.0876H272.912ZM277.036 31.7898L277.876 29.4107H288.953L289.793 31.7898H277.036Z" fill="white"/>
<path d="M266.088 31.2731C266.345 31.2731 266.56 31.37 266.755 31.5531C266.938 31.736 267.035 31.9621 267.035 32.2205V37.151C267.035 37.4095 266.938 37.6247 266.755 37.8184C266.572 38.0015 266.345 38.0984 266.088 38.0984H243.997C243.738 38.0984 243.522 38.0015 243.329 37.8184C243.147 37.6355 243.05 37.4095 243.05 37.151V14.5653C243.05 14.307 243.147 14.0917 243.329 13.8979C243.512 13.7149 243.738 13.618 243.997 13.618H265.743C266.002 13.618 266.216 13.7149 266.41 13.8979C266.593 14.0809 266.69 14.307 266.69 14.5653V19.4959C266.69 19.7543 266.593 19.9695 266.41 20.1633C266.228 20.3464 266.002 20.4433 265.743 20.4433H252.147V22.6502H263.816C264.074 22.6502 264.29 22.7471 264.483 22.93C264.666 23.1131 264.764 23.3391 264.764 23.5974V28.1405C264.764 28.3988 264.666 28.6141 264.483 28.8079C264.3 28.9909 264.074 29.0878 263.816 29.0878H252.147V31.2947H266.098L266.088 31.2731Z" fill="white"/>
<path d="M231.562 13.618C233.748 13.618 235.664 13.9948 237.29 14.7376C238.916 15.4804 240.164 16.4923 241.026 17.7734C241.886 19.0545 242.317 20.4862 242.317 22.0688C242.317 24.674 241.498 26.7302 239.874 28.2159C238.248 29.6798 235.471 30.4228 231.552 30.4228H226.933V37.1295C226.933 37.3879 226.836 37.6033 226.653 37.7969C226.471 37.98 226.245 38.0769 225.986 38.0769H218.472C218.214 38.0769 217.998 37.98 217.805 37.7969C217.621 37.614 217.524 37.3879 217.524 37.1295V14.5653C217.524 14.307 217.621 14.0917 217.805 13.8979C217.988 13.7149 218.214 13.618 218.472 13.618H231.541H231.562ZM231.422 23.9634C231.983 23.9634 232.424 23.8021 232.747 23.4791C233.069 23.1345 233.241 22.6717 233.241 22.1119C233.241 21.5521 233.081 21.0569 232.747 20.68C232.424 20.3033 231.983 20.1203 231.422 20.1203H226.988V23.9634H231.422Z" fill="white"/>
<path d="M197.631 36.8928C197.329 37.6893 196.802 38.0769 196.059 38.0769H189.448C189.233 38.0769 189.05 38.0015 188.89 37.8724C188.748 37.7109 188.674 37.5278 188.674 37.3126L188.705 37.1079L196.328 14.7699C196.424 14.4685 196.597 14.1993 196.855 13.9625C197.114 13.7257 197.459 13.618 197.9 13.618H207.621C208.062 13.618 208.417 13.7364 208.666 13.9625C208.922 14.1993 209.095 14.4685 209.193 14.7699L216.814 37.1079L216.847 37.3126C216.847 37.5171 216.771 37.7109 216.598 37.8724C216.459 38.0122 216.286 38.0769 216.071 38.0769H209.462C208.719 38.0769 208.191 37.6786 207.89 36.8928L207.017 34.449H198.491L197.619 36.8928H197.631ZM202.766 20.3679L200.279 27.6345H205.241L202.766 20.3679Z" fill="white"/>
<path d="M172.503 22.586C175.002 22.8552 176.993 23.2965 178.49 23.9102C180.007 24.5238 181.105 25.3312 181.784 26.3215C182.462 27.3228 182.807 28.5609 182.807 30.0572C182.807 31.6827 182.279 33.1145 181.214 34.3417C180.169 35.5474 178.716 36.4733 176.864 37.13C175.002 37.7652 172.891 38.0774 170.512 38.0774C167.864 38.0774 165.625 37.7436 163.784 37.0869C161.943 36.4302 160.576 35.5583 159.672 34.471C158.767 33.3621 158.315 32.1457 158.315 30.8322C158.315 30.6062 158.38 30.4231 158.52 30.294C158.681 30.1541 158.875 30.0895 159.101 30.0895H166.066C166.54 30.0895 166.928 30.2402 167.218 30.5308C167.606 30.8969 168.036 31.1445 168.51 31.2736C168.984 31.3921 169.651 31.4459 170.512 31.4459C172.666 31.4459 173.741 31.1122 173.741 30.4555C173.741 30.1864 173.591 29.9603 173.3 29.7772C173.031 29.5727 172.536 29.4005 171.804 29.2714C171.104 29.1098 170.06 28.9591 168.682 28.7976C165.582 28.4315 163.203 27.6672 161.545 26.4831C159.887 25.2774 159.069 23.5979 159.069 21.4233C159.069 19.884 159.532 18.5274 160.458 17.3433C161.383 16.1699 162.697 15.244 164.398 14.5874C166.12 13.9307 168.112 13.5969 170.372 13.5969C172.633 13.5969 174.786 13.9737 176.552 14.7165C178.317 15.4378 179.662 16.3529 180.6 17.4402C181.526 18.5274 181.988 19.5933 181.988 20.6374C181.988 20.8636 181.912 21.0465 181.752 21.1757C181.612 21.3157 181.417 21.3803 181.171 21.3803H173.86C173.472 21.3803 173.128 21.2403 172.805 20.9712C172.559 20.7452 172.256 20.5621 171.923 20.4222C171.578 20.2822 171.061 20.2176 170.362 20.2176C168.844 20.2176 168.09 20.5298 168.09 21.165C168.09 21.5095 168.381 21.7786 168.973 21.9831C169.565 22.1662 170.738 22.36 172.503 22.5645V22.586Z" fill="white"/>
<path d="M156.614 31.1222C156.862 31.1222 157.077 31.2085 157.26 31.3914C157.443 31.5745 157.529 31.7897 157.529 32.0374V36.8279C157.529 37.0755 157.443 37.2909 157.26 37.4738C157.077 37.6569 156.862 37.7429 156.614 37.7429H135.137C134.89 37.7429 134.674 37.6569 134.492 37.4738C134.308 37.2909 134.222 37.0755 134.222 36.8279V14.8774C134.222 14.6298 134.308 14.4145 134.492 14.2314C134.674 14.0484 134.89 13.9623 135.137 13.9623H156.27C156.517 13.9623 156.733 14.0484 156.916 14.2314C157.099 14.4145 157.185 14.6298 157.185 14.8774V19.6679C157.185 19.9155 157.099 20.1309 156.916 20.3138C156.733 20.4969 156.517 20.5829 156.27 20.5829H143.05V22.7253H154.397C154.644 22.7253 154.859 22.8114 155.043 22.9945C155.226 23.1774 155.312 23.3928 155.312 23.6403V28.0541C155.312 28.3017 155.226 28.5171 155.043 28.7C154.859 28.8831 154.644 28.9691 154.397 28.9691H143.05V31.1116H156.603L156.614 31.1222Z" fill="white"/>
<path d="M132.177 30.7778C132.424 30.7778 132.64 30.864 132.823 31.0469C133.006 31.23 133.092 31.4452 133.092 31.6929V36.8279C133.092 37.0755 133.006 37.2909 132.823 37.4738C132.64 37.6569 132.424 37.7429 132.177 37.7429H112.336C112.089 37.7429 111.873 37.6569 111.691 37.4738C111.507 37.2909 111.421 37.0755 111.421 36.8279V14.8774C111.421 14.6298 111.507 14.4145 111.691 14.2314C111.873 14.0484 112.089 13.9623 112.336 13.9623H119.678C119.926 13.9623 120.141 14.0484 120.324 14.2314C120.507 14.4145 120.593 14.6298 120.593 14.8774V30.7778H132.177Z" fill="white"/>
<path d="M91.8822 36.5915C91.5915 37.3667 91.0748 37.7434 90.3536 37.7434H83.9267C83.7221 37.7434 83.5391 37.6788 83.3776 37.539C83.2378 37.3774 83.1731 37.1945 83.1731 36.9898L83.2053 36.7853L90.6119 15.0716C90.6981 14.781 90.8703 14.5118 91.1179 14.2858C91.3655 14.0597 91.71 13.9413 92.1407 13.9413H101.582C102.012 13.9413 102.346 14.0597 102.604 14.2858C102.852 14.5118 103.024 14.7702 103.111 15.0716L110.517 36.7853L110.549 36.9898C110.549 37.1945 110.474 37.3774 110.313 37.539C110.173 37.6788 110.011 37.7434 109.807 37.7434H103.39C102.669 37.7434 102.152 37.3559 101.862 36.5915L101.011 34.2124H92.7219L91.8715 36.5915H91.8822ZM96.8774 20.519L94.4659 27.5917H99.2888L96.8774 20.519Z" fill="white"/>
<path d="M73.7319 22.586C76.2186 22.8552 78.221 23.2965 79.7174 23.9102C81.2353 24.5238 82.3335 25.3312 83.0116 26.3215C83.6898 27.3228 84.0343 28.5609 84.0343 30.0572C84.0343 31.6827 83.5069 33.1145 82.441 34.3417C81.3967 35.5474 79.9543 36.4733 78.0919 37.13C76.2295 37.7652 74.1195 38.0774 71.7403 38.0774C69.0921 38.0774 66.8421 37.7436 65.0119 37.0869C63.1819 36.4302 61.8038 35.5583 60.8997 34.471C59.9953 33.3621 59.5431 32.1457 59.5431 30.8322C59.5431 30.6062 59.6078 30.4231 59.7478 30.294C59.9091 30.1541 60.1029 30.0895 60.329 30.0895H67.2941C67.7679 30.0895 68.1553 30.2402 68.446 30.5308C68.8336 30.8969 69.2643 31.1445 69.7379 31.2736C70.2116 31.3921 70.8791 31.4459 71.7403 31.4459C73.8933 31.4459 74.9698 31.1122 74.9698 30.4555C74.9698 30.1864 74.8191 29.9603 74.5285 29.7772C74.2593 29.5727 73.7534 29.4005 73.0321 29.2714C72.3324 29.1098 71.2881 28.9591 69.9102 28.7976C66.8098 28.4315 64.4307 27.6672 62.7728 26.4831C61.1148 25.2774 60.2967 23.5979 60.2967 21.4233C60.2967 19.884 60.7597 18.5274 61.6855 17.3433C62.6112 16.1699 63.9247 15.244 65.6255 14.5874C67.3481 13.9307 69.3397 13.5969 71.611 13.5969C73.8826 13.5969 76.0248 13.9737 77.7903 14.7165C79.5559 15.4378 80.9015 16.3529 81.8381 17.4402C82.764 18.5274 83.2269 19.5933 83.2269 20.6374C83.2269 20.8636 83.1516 21.0465 82.99 21.1757C82.8502 21.3157 82.6564 21.3803 82.4088 21.3803H75.0991C74.7115 21.3803 74.3671 21.2403 74.0441 20.9712C73.7965 20.7452 73.5059 20.5621 73.1614 20.4222C72.8169 20.2822 72.3002 20.2176 71.6003 20.2176C70.0824 20.2176 69.3288 20.5298 69.3288 21.165C69.3288 21.5095 69.6195 21.7786 70.2115 21.9831C70.8036 22.1662 71.9771 22.36 73.7426 22.5645L73.7319 22.586Z" fill="white"/>
<path d="M-3.62564e-06 4.74772C-0.161484 2.03486 2.11 -0.204343 4.82288 0.0109644L46.3664 3.359C48.7455 3.55277 50.5541 5.57665 50.4679 7.96656L49.2838 41.1991C49.1976 43.5998 47.2276 45.5053 44.8269 45.5053H24.7926C24.2652 45.5053 23.856 45.9574 23.8991 46.4741L24.5666 54.1929C24.6419 55.0326 23.6191 55.4955 23.0378 54.8927L15.276 46.8617C14.4363 45.9898 13.2737 45.5053 12.0679 45.5053H6.85752C4.51067 45.5053 2.56216 43.6752 2.40067 41.3284L-3.62564e-06 4.74772Z" fill="#F724DE"/>
<path d="M32.4467 27.57L31.2517 24.8033C31.1764 24.631 31.1119 24.4481 31.0257 24.2112C32.1238 24.2221 35.4072 24.0067 36.3331 23.63C36.6022 23.5222 36.8283 23.3284 36.9683 23.0702C37.3988 22.2843 37.7217 21.4445 38.174 20.6695C38.54 20.0236 38.5829 19.4529 38.2709 18.7748C37.8617 17.8596 37.9155 17.8596 36.8929 17.8274C36.6776 17.8274 35.6764 17.8921 35.5148 17.6229C35.2888 17.2353 35.1059 16.8262 34.869 16.3418L37.0005 16.4925C36.8283 16.0296 36.6022 15.5129 36.4838 15.1253C36.3331 14.6301 36.0209 14.3502 35.5688 14.1456C34.18 13.5213 32.8021 12.8538 31.4241 12.2079C30.7136 11.8742 30.0031 11.5404 29.2495 11.1959C27.8716 14.0272 26.5043 16.837 25.1371 19.6467C24.3728 20.1096 20.0774 21.9614 19.4314 22.3812C19.2162 22.521 19.0009 22.7257 18.8609 22.9409C15.5559 28.2698 11.9388 34.0938 8.64457 39.4443H17.9781C18.1397 39.4334 18.3657 39.2612 18.441 39.1105C19.0009 37.9586 19.5391 36.796 20.0774 35.6441C20.4972 34.7614 20.9064 33.8786 21.3369 32.9634C22.6503 33.7817 23.9098 34.546 25.1371 35.3534C25.3309 35.4826 25.4816 35.7733 25.514 36.01L25.826 39.455H33.9431L34.7829 33.8355C34.8367 33.4586 34.7829 33.0819 34.6429 32.7267L32.4467 27.5809V27.57Z" fill="black"/>
<path d="M42.5984 33.0819L38.4862 23.2531L35.8379 28.6574C35.5902 29.1633 35.5364 29.6371 35.601 30.186C35.6979 31.0041 35.784 31.8224 35.8593 32.6405L36.6238 39.4441C37.7326 39.4441 39.9286 39.4441 41.0376 39.4441C41.2528 39.4441 41.6297 39.3581 41.6726 39.1428C41.8126 38.4 42.5553 34.7828 42.6847 34.3307C42.8353 33.7817 42.7169 33.4157 42.5769 33.0819H42.5984Z" fill="black"/>
<path d="M31.4995 9.54927C32.8343 9.72152 33.8786 10.7765 34.0509 12.1114C34.0724 12.2621 34.2876 12.2621 34.2985 12.1114C34.4707 10.7765 35.5257 9.72152 36.8605 9.54927C37.0112 9.52775 37.0112 9.31244 36.8605 9.30168C35.5257 9.12942 34.4707 8.08518 34.2985 6.75028C34.2769 6.59958 34.0616 6.59958 34.0509 6.75028C33.8786 8.08518 32.8343 9.12942 31.4995 9.30168C31.3486 9.3232 31.3486 9.53851 31.4995 9.54927Z" fill="black"/>
</g>
</svg>
